<?xml version="1.0" encoding="UTF-8" standalone="no"?>
<!-- Created with Inkscape (http://www.inkscape.org/) -->

<svg
   width="100mm"
   height="100mm"
   viewBox="0 0 100 100"
   version="1.1"
   id="svg1"
   inkscape:version="1.3.2 (091e20e, 2023-11-25)"
   sodipodi:docname="bus.svg"
   xmlns:inkscape="http://www.inkscape.org/namespaces/inkscape"
   xmlns:sodipodi="http://sodipodi.sourceforge.net/DTD/sodipodi-0.dtd"
   xmlns="http://www.w3.org/2000/svg"
   xmlns:svg="http://www.w3.org/2000/svg">
  <sodipodi:namedview
     id="namedview1"
     pagecolor="#000000"
     bordercolor="#000000"
     borderopacity="0.25"
     inkscape:showpageshadow="2"
     inkscape:pageopacity="0.0"
     inkscape:pagecheckerboard="true"
     inkscape:deskcolor="#d1d1d1"
     inkscape:document-units="mm"
     inkscape:zoom="0.7874504"
     inkscape:cx="151.12063"
     inkscape:cy="249.53953"
     inkscape:window-width="2560"
     inkscape:window-height="1284"
     inkscape:window-x="1440"
     inkscape:window-y="25"
     inkscape:window-maximized="0"
     inkscape:current-layer="layer1" />
  <defs
     id="defs1" />
  <g
     inkscape:label="Ebene 1"
     inkscape:groupmode="layer"
     id="layer1">
    <circle
       style="fill:#00586a;stroke-width:0.41945;fill-opacity:1"
       id="path1"
       cx="50"
       cy="50"
       r="50" />
    <path
       d="m 8.92603,27.549219 h 15.402281 q 5.286376,0 7.896932,2.806348 2.675819,2.806348 2.675819,8.484307 0,4.764265 -1.435805,7.309557 -1.435806,2.480028 -4.503209,3.263195 v 0.261055 q 3.393722,0.848431 4.829528,3.263195 1.50107,2.414765 1.50107,7.505349 0,5.939015 -2.545292,9.006418 -2.545292,3.00214 -8.419043,3.00214 H 8.92603 Z m 12.987516,18.339156 q 1.696862,0 2.545292,-0.391583 0.913695,-0.391584 1.240014,-1.50107 0.391584,-1.109486 0.391584,-3.328459 0,-2.3495 -0.32632,-3.393723 -0.326319,-1.109486 -1.17475,-1.435806 -0.848431,-0.391583 -2.67582,-0.391583 H 17.80192 v 10.442224 z m 0.195792,18.665476 q 1.827389,0 2.67582,-0.391584 0.848431,-0.391583 1.17475,-1.501069 0.32632,-1.109487 0.32632,-3.524251 0,-2.414764 -0.32632,-3.524251 -0.326319,-1.17475 -1.240014,-1.566333 -0.848431,-0.391584 -2.610556,-0.391584 H 17.80192 V 64.553851 Z M 64.097015,27.549219 v 24.996074 q 0,8.875891 -0.783167,12.922252 -0.717903,3.981098 -3.52425,5.743224 -2.741084,1.762125 -9.071682,1.762125 -6.330599,0 -9.136947,-1.762125 -2.741083,-1.762126 -3.52425,-5.743224 -0.717903,-4.046361 -0.717903,-12.922252 V 27.549219 h 8.941154 v 27.998213 q 0,4.764265 0.195792,6.591654 0.261056,1.762126 1.109486,2.349501 0.913695,0.587375 3.132668,0.587375 2.218972,0 3.067403,-0.587375 0.848431,-0.587375 1.044222,-2.349501 0.261056,-1.762125 0.261056,-6.591654 V 27.549219 Z m 14.381022,45.423675 q -2.741084,0 -6.004279,-0.32632 -3.197931,-0.261055 -5.677959,-0.783166 v -7.309557 q 6.656917,0.522111 9.20221,0.522111 2.284236,0 3.458986,-0.261056 1.17475,-0.261055 1.762126,-0.913694 0.522111,-0.522111 0.652639,-1.435806 0.195791,-0.978959 0.195791,-2.741084 0,-2.414764 -0.261055,-3.393723 -0.261056,-1.044222 -1.109487,-1.501069 -0.783166,-0.522112 -2.806347,-0.913695 l -6.134807,-1.109486 q -3.263195,-0.587375 -4.503209,-3.589515 -1.240014,-3.002139 -1.240014,-8.680099 0,-5.547431 1.566333,-8.484307 1.631598,-2.936875 4.437946,-3.981098 2.806347,-1.044222 7.113765,-1.044222 3.002139,0 5.743223,0.391583 2.806348,0.391584 4.568473,0.783167 v 7.309557 Q 85.918121,34.92404 81.54544,34.92404 q -2.3495,0 -3.654778,0.195792 -1.240014,0.195791 -1.82739,0.717902 -0.717902,0.522112 -0.913694,1.50107 -0.195792,0.978959 -0.195792,2.871612 0,2.023181 0.195792,2.936875 0.261055,0.913695 0.848431,1.305278 0.587375,0.391584 2.02318,0.652639 l 5.743224,1.044223 q 2.284236,0.326319 3.85057,1.435806 1.631597,1.044222 2.545292,3.52425 0.913695,2.610556 0.913695,7.374821 0,6.200071 -1.50107,9.332738 -1.50107,3.132667 -4.17689,4.176889 -2.610556,0.978959 -6.917973,0.978959 z"
       id="text1"
       style="font-weight:bold;font-stretch:condensed;font-size:65.2639px;font-family:'Saira Condensed';-inkscape-font-specification:'Saira Condensed,  Bold Condensed';letter-spacing:-3.175px;fill:#ffffff;stroke-width:0.264583"
       aria-label="BUS" />
  </g>
</svg>
