<?xml version="1.0" encoding="UTF-8" standalone="no"?>
<!-- Created with Inkscape (http://www.inkscape.org/) -->

<svg
   width="100mm"
   height="100mm"
   viewBox="0 0 100 100"
   version="1.1"
   id="svg1"
   xmlns="http://www.w3.org/2000/svg"
   xmlns:svg="http://www.w3.org/2000/svg">
  <defs
     id="defs1" />
  <g
     id="layer1">
    <circle
       style="fill:#00a5df;stroke:none;stroke-width:12.148;stroke-dasharray:none;stroke-opacity:1;fill-opacity:1"
       id="path4"
       cx="50"
       cy="50"
       r="50" />
    <path
       id="path2"
       style="fill:#ffffff;stroke:none;stroke-width:5.07487;stroke-opacity:1"
       d="m 23.644552,74.431632 c -0.447823,-0.004 -0.896542,-5e-5 -1.343588,0.01189 -0.44715,0.01193 -0.893093,0.0327 -1.33997,0.06046 -0.446178,0.02772 -0.892071,0.06216 -1.337902,0.10542 -0.4451,0.0432 -0.890816,0.09436 -1.334286,0.152446 -0.443297,0.05818 -0.886457,0.124385 -1.328084,0.196887 -0.442344,0.0726 -0.881942,0.152882 -1.320333,0.238745 h -0.0015 c -0.439214,0.08611 -0.876133,0.178244 -1.312582,0.276986 -0.437104,0.09881 -0.871453,0.202271 -1.30483,0.312642 -0.43284,0.110263 -0.866099,0.226627 -1.297078,0.347783 -0.429721,0.120832 -0.85741,0.24608 -1.285193,0.376721 -0.426863,0.13036 -0.852989,0.265958 -1.2769246,0.404626 -0.3506301,0.114672 -0.6987892,0.233664 -1.0469645,0.353467 a 50,50 0 0 0 5.1955481,6.571692 c 0.178993,-0.05238 0.358516,-0.107449 0.536919,-0.157613 0.370211,-0.104073 0.73927,-0.205407 1.107426,-0.299207 0.368422,-0.09383 0.73518,-0.181157 1.099674,-0.263549 h 0.0021 c 0.364724,-0.08252 0.727372,-0.159491 1.089339,-0.230477 0.363209,-0.07114 0.724717,-0.136339 1.084172,-0.195337 0.35997,-0.0591 0.71967,-0.113174 1.07797,-0.160197 0.35813,-0.04691 0.714237,-0.08632 1.070736,-0.120923 0.355966,-0.03454 0.712732,-0.0637 1.068152,-0.08578 0.354921,-0.02204 0.709887,-0.03757 1.064534,-0.04703 0.354554,-0.0095 0.708492,-0.01296 1.062468,-0.0098 0.354515,0.0032 0.707855,0.01371 1.062467,0.02946 0.35467,0.01575 0.711067,0.03784 1.066602,0.06614 0.355645,0.0283 0.711477,0.0626 1.068152,0.103353 0.357352,0.04082 0.715015,0.08801 1.074353,0.141077 0.358503,0.05295 0.71879,0.110552 1.080037,0.1757 0.361648,0.06524 0.724004,0.137599 1.087789,0.214457 0.363677,0.07685 0.728446,0.159754 1.09554,0.248047 v -0.0016 c 0.36679,0.08831 0.734305,0.182013 1.103809,0.281119 0.369608,0.09911 0.74203,0.204706 1.115177,0.314193 0.372508,0.109272 0.746706,0.223009 1.122929,0.342098 0.374786,0.11857 0.752792,0.2431 1.132748,0.371037 0.379902,0.128056 0.760514,0.260714 1.142565,0.396358 h 0.0021 c 0.382981,0.135878 0.766846,0.275409 1.152385,0.418062 h 0.0021 c 0.385639,0.142558 0.772566,0.288864 1.162203,0.4377 h 0.0021 c 0.38847,0.148256 0.777773,0.298788 1.171505,0.452685 0.392897,0.15361 0.787511,0.309842 1.183907,0.467155 0.397134,0.157744 0.794188,0.316909 1.193209,0.476457 0.399441,0.159657 0.802414,0.31974 1.205094,0.480591 0.403097,0.161017 0.807013,0.323515 1.212846,0.484208 0.405931,0.160692 0.812895,0.321099 1.222664,0.480591 h 0.0021 c 0.409136,0.159205 0.819128,0.317564 1.232483,0.474389 0.412523,0.156549 0.827109,0.310211 1.243852,0.463021 0.416645,0.152811 0.833442,0.304056 1.25212,0.451136 h 0.0021 c 0.419615,0.147304 0.839085,0.29093 1.261422,0.431498 h 0.0021 c 0.422436,0.140461 0.847491,0.277455 1.273824,0.410311 0.426251,0.132799 0.853135,0.262765 1.283126,0.386539 v -0.0021 c 0.429724,0.123835 0.860029,0.244108 1.292944,0.357601 0.432667,0.113456 0.866824,0.222421 1.302763,0.324528 v -0.0021 c 0.436441,0.10236 0.872439,0.199246 1.310514,0.288871 0.438941,0.0898 0.879719,0.17382 1.320333,0.250114 l -0.0021,-0.0021 c 0.441945,0.07662 0.885493,0.146603 1.328084,0.208773 0.443226,0.06224 0.887026,0.116913 1.332219,0.164331 0.445035,0.04741 0.891676,0.0868 1.337902,0.118856 0.446138,0.03206 0.892477,0.05801 1.339454,0.07441 0.447026,0.01628 0.893528,0.02476 1.339969,0.02532 h 0.0021 c 0.447182,4.46e-4 0.893608,-0.0078 1.339969,-0.02325 0.447774,-0.01541 0.895367,-0.03912 1.341521,-0.07028 0.446757,-0.03121 0.891392,-0.07086 1.335835,-0.117305 h 0.0021 c 0.444351,-0.04656 0.888242,-0.100675 1.332219,-0.162264 0.443804,-0.06145 0.885774,-0.129805 1.326017,-0.205156 0.441274,-0.07564 0.881969,-0.15706 1.320333,-0.24598 0.438446,-0.08891 0.875389,-0.185532 1.310514,-0.286804 0.436581,-0.101495 0.872189,-0.20762 1.30483,-0.320394 v -0.0021 c 0.433293,-0.112972 0.863837,-0.230482 1.292945,-0.353467 0.259994,-0.07453 0.518577,-0.154255 0.77773,-0.232027 a 50,50 0 0 0 13.121883,-13.27086 c -0.237187,0.08601 -0.474954,0.170862 -0.711067,0.258382 -0.415075,0.153797 -0.829173,0.30993 -1.240235,0.467155 -0.411752,0.157489 -0.821513,0.316385 -1.230416,0.476456 -0.409,0.160071 -0.81561,0.321279 -1.220597,0.482142 -0.405294,0.160944 -0.808523,0.321815 -1.210779,0.482657 -0.401321,0.160508 -0.802352,0.3212 -1.201477,0.480591 -0.399023,0.159291 -0.794878,0.316229 -1.189591,0.472323 l -0.0016,0.0021 c -0.394825,0.156236 -0.787213,0.310326 -1.179773,0.463021 -0.392146,0.152436 -0.781751,0.302039 -1.169954,0.449068 h -0.0021 c -0.388841,0.147331 -0.774996,0.292597 -1.160136,0.433565 v -0.0016 c -0.385977,0.141143 -0.768243,0.280638 -1.150317,0.414445 -0.382159,0.133775 -0.762601,0.263161 -1.141016,0.388607 -0.37831,0.125443 -0.755266,0.246764 -1.13068,0.363285 -0.375063,0.116411 -0.748856,0.227185 -1.120862,0.33383 -0.37269,0.106815 -0.743255,0.208864 -1.11156,0.304891 -0.369157,0.09623 -0.736523,0.186396 -1.101742,0.271301 -0.365858,0.08517 -0.730743,0.164669 -1.093473,0.238228 -0.363234,0.07368 -0.725397,0.143394 -1.085722,0.205156 l 0.0016,-0.0021 c -0.361354,0.06185 -0.722243,0.118403 -1.080037,0.167948 -0.357622,0.04961 -0.715037,0.0933 -1.072286,0.130741 -0.357355,0.03735 -0.713311,0.06926 -1.068152,0.09405 -0.355644,0.02484 -0.71051,0.04259 -1.064534,0.05478 -0.354588,0.0123 -0.708503,0.01792 -1.062468,0.01757 -0.354505,-4.42e-4 -0.708544,-0.0068 -1.062467,-0.01964 h -0.0021 c -0.353976,-0.01301 -0.709723,-0.03135 -1.064535,-0.05684 -0.355572,-0.02554 -0.711588,-0.05762 -1.068152,-0.0956 -0.356605,-0.03798 -0.713713,-0.08245 -1.072286,-0.132808 -0.359007,-0.05043 -0.718118,-0.107631 -1.07797,-0.170016 -0.360986,-0.06251 -0.72358,-0.130958 -1.086239,-0.205155 -0.363522,-0.07437 -0.728316,-0.154138 -1.093473,-0.239779 -0.36586,-0.08569 -0.734876,-0.177141 -1.103808,-0.273885 -0.368883,-0.09671 -0.739169,-0.199277 -1.111044,-0.306441 C 55.587052,83.625331 55.213026,83.513462 54.83748,83.39646 54.4628,83.2797 54.085562,83.157035 53.706799,83.031108 h -0.0021 C 53.326627,82.90525 52.947112,82.774107 52.5663,82.640434 H 52.5642 C 52.181885,82.506106 51.798292,82.369548 51.413916,82.228573 51.02886,82.087382 50.640789,81.942658 50.251713,81.795007 v -0.0021 c -0.388054,-0.147289 -0.778842,-0.296273 -1.171505,-0.449068 -0.391267,-0.15229 -0.784479,-0.308609 -1.179773,-0.465088 h -0.0021 c -0.395208,-0.156489 -0.791654,-0.313366 -1.189591,-0.472322 -0.39836,-0.159126 -0.799371,-0.320074 -1.20096,-0.480591 h -0.0021 c -0.40222,-0.160827 -0.804812,-0.323777 -1.208712,-0.484208 h -0.0021 C 43.889469,79.280743 43.482458,79.120829 43.073758,78.961039 42.66569,78.801538 42.25512,78.642326 41.841791,78.484582 41.42983,78.327218 41.017718,78.171268 40.601557,78.017427 c -0.416058,-0.153946 -0.833502,-0.30468 -1.25212,-0.453202 -0.419545,-0.148956 -0.840243,-0.295039 -1.261938,-0.437183 -0.421243,-0.14185 -0.845011,-0.281149 -1.271241,-0.415995 -0.425575,-0.13471 -0.852285,-0.264745 -1.281575,-0.390674 -0.428451,-0.125713 -0.858689,-0.247395 -1.290877,-0.363285 -0.432096,-0.115894 -0.865887,-0.225524 -1.300696,-0.330213 -0.434504,-0.104506 -0.870526,-0.204077 -1.308447,-0.296622 -0.438014,-0.09254 -0.878315,-0.178504 -1.318266,-0.257866 -0.440552,-0.07945 -0.881373,-0.151594 -1.324467,-0.217041 -0.44246,-0.06534 -0.885705,-0.124925 -1.330152,-0.1757 -0.444922,-0.05084 -0.891751,-0.09318 -1.337902,-0.128674 -0.446064,-0.0355 -0.893042,-0.06439 -1.33997,-0.08423 -0.446987,-0.01985 -0.89237,-0.03112 -1.339453,-0.03514 z" />
    <path
       id="text4"
       style="font-weight:bold;font-stretch:condensed;font-size:91.7222px;font-family:'Saira Condensed';-inkscape-font-specification:'Saira Condensed,  Bold Condensed';letter-spacing:-1.85208px;fill:#ffffff;stroke-width:6.00001"
       d="m 38.5,10.787109 a 1.2169836,1.2169836 0 0 0 -1.199219,1.00586 L 25.835937,76.732422 a 1.2169836,1.2169836 0 0 0 1.199219,1.427734 h 15.041016 a 1.2169836,1.2169836 0 0 0 1.199219,-1.005859 l 4.316406,-24.492188 h 23.285156 a 1.2169836,1.2169836 0 0 0 1.199219,-1.007812 L 74.277344,39.087891 A 1.2169836,1.2169836 0 0 0 73.078125,37.662109 H 50.226562 l 2.042969,-11.416015 h 24.753906 a 1.2169836,1.2169836 0 0 0 1.199219,-1.00586 l 2.292969,-13.02539 a 1.2169836,1.2169836 0 0 0 -1.199219,-1.427735 z"
       transform="matrix(1,0,-0.08540164,1,-3.1051582,0)" />
  </g>
</svg>
