<?xml version="1.0" encoding="UTF-8" standalone="no"?>
<!-- Created with Inkscape (http://www.inkscape.org/) -->

<svg
   width="100mm"
   height="100mm"
   viewBox="0 0 100 100"
   version="1.1"
   id="svg1"
   xmlns="http://www.w3.org/2000/svg"
   xmlns:svg="http://www.w3.org/2000/svg">
  <defs
     id="defs1" />
  <g
     id="layer1">
    <rect
       style="fill:#90f315;stroke-width:6.88301;fill-opacity:1"
       id="rect1"
       width="100"
       height="100"
       x="0"
       y="0" />
    <path
       id="rect11"
       style="fill:#ffffff;fill-opacity:1;stroke:none;stroke-width:0;stroke-dasharray:none;stroke-opacity:1"
       d="M 100.0001 65.807869 L 0 87.636511 L 0 93.779289 L 100.0001 71.949097 L 100.0001 65.807869 z " />
    <path
       id="rect8"
       style="fill:#ffffff;fill-opacity:1;stroke:none;stroke-width:0;stroke-dasharray:none;stroke-opacity:1"
       d="M 100.0001 7.6253743 L 0 29.455566 L 0 35.59731 L 100.0001 13.766602 L 100.0001 7.6253743 z " />
    <path
       id="path6"
       style="stroke:none;color:#000000;fill:#ffffff;-inkscape-stroke:none"
       d="M 90.476648 22.041549 C 90.151562 22.033879 89.820818 22.064185 89.490145 22.136633 L 7.6310588 40.070422 C 5.3172065 40.577372 3.6406047 42.662623 3.6406047 45.03136 L 3.6406047 81.449292 L 94.765792 61.556449 L 94.765792 26.380819 C 94.765792 24.011216 92.752237 22.095236 90.476648 22.041549 z M 88.630766 27.034526 A 2.6032897 3.2460598 33.69752 0 1 90.820813 29.480371 L 90.820813 42.716256 A 2.6032897 3.2460598 33.69752 0 1 88.004447 46.332572 L 79.428227 48.208427 A 2.6032897 3.2460598 33.69752 0 1 76.611344 45.824593 L 76.611344 32.588708 A 2.6032897 3.2460598 33.69752 0 1 79.428227 28.972392 L 88.004447 27.096537 A 2.6032897 3.2460598 33.69752 0 1 88.630766 27.034526 z M 71.350684 30.803805 A 2.6032897 3.2460598 33.69752 0 1 73.540214 33.24965 L 73.540214 46.485535 A 2.6032897 3.2460598 33.69752 0 1 70.723848 50.101851 L 62.147628 51.977706 A 2.6032897 3.2460598 33.69752 0 1 59.330745 49.593872 L 59.330745 36.357471 A 2.6032897 3.2460598 33.69752 0 1 62.147628 32.741671 L 70.723848 30.865816 A 2.6032897 3.2460598 33.69752 0 1 71.350684 30.803805 z M 54.070085 34.573083 A 2.6032897 3.2460598 33.69752 0 1 56.260132 37.018929 L 56.260132 50.254814 A 2.6032897 3.2460598 33.69752 0 1 53.44325 53.87113 L 44.867029 55.746985 A 2.6032897 3.2460598 33.69752 0 1 42.050663 53.363151 L 42.050663 40.12675 A 2.6032897 3.2460598 33.69752 0 1 44.867029 36.51095 L 53.44325 34.635095 A 2.6032897 3.2460598 33.69752 0 1 54.070085 34.573083 z M 36.789486 38.342362 A 2.6032897 3.2460598 33.69752 0 1 38.979533 40.788208 L 38.979533 54.024093 A 2.6032897 3.2460598 33.69752 0 1 36.162651 57.640409 L 27.58643 59.515747 A 2.6032897 3.2460598 33.69752 0 1 24.770064 57.131913 L 24.770064 43.896029 A 2.6032897 3.2460598 33.69752 0 1 27.58643 40.280229 L 36.162651 38.404374 A 2.6032897 3.2460598 33.69752 0 1 36.789486 38.342362 z M 19.508887 42.111641 A 2.6032897 3.2460598 33.69752 0 1 21.698934 44.557487 L 21.698934 57.793372 A 2.6032897 3.2460598 33.69752 0 1 18.882052 61.409172 L 10.306348 63.285026 A 2.6032897 3.2460598 33.69752 0 1 7.4894653 60.901192 L 7.4894653 47.665308 A 2.6032897 3.2460598 33.69752 0 1 10.306348 44.048991 L 18.882052 42.173653 A 2.6032897 3.2460598 33.69752 0 1 19.508887 42.111641 z " />
  </g>
</svg>
