<?xml version="1.0" encoding="UTF-8" standalone="no"?>
<!-- Created with Inkscape (http://www.inkscape.org/) -->

<svg
   width="88.698997mm"
   height="88.698997mm"
   viewBox="0 0 88.698997 88.698998"
   version="1.1"
   id="svg1"
   inkscape:version="1.3.2 (091e20e, 2023-11-25)"
   sodipodi:docname="plusbus.svg"
   xmlns:inkscape="http://www.inkscape.org/namespaces/inkscape"
   xmlns:sodipodi="http://sodipodi.sourceforge.net/DTD/sodipodi-0.dtd"
   xmlns="http://www.w3.org/2000/svg"
   xmlns:svg="http://www.w3.org/2000/svg">
  <sodipodi:namedview
     id="namedview1"
     pagecolor="#000000"
     bordercolor="#000000"
     borderopacity="0.25"
     inkscape:showpageshadow="2"
     inkscape:pageopacity="0.0"
     inkscape:pagecheckerboard="true"
     inkscape:deskcolor="#d1d1d1"
     inkscape:document-units="mm"
     inkscape:zoom="2.2272461"
     inkscape:cx="183.63485"
     inkscape:cy="104.83799"
     inkscape:window-width="2560"
     inkscape:window-height="1284"
     inkscape:window-x="1440"
     inkscape:window-y="25"
     inkscape:window-maximized="0"
     inkscape:current-layer="layer1" />
  <defs
     id="defs1">
    <inkscape:path-effect
       effect="fillet_chamfer"
       id="path-effect3"
       is_visible="true"
       lpeversion="1"
       nodesatellites_param="F,0,0,1,0,1,0,1 @ F,0,0,1,0,2.475157,0,1 @ F,0,1,1,0,1,0,1 @ F,0,0,1,0,1,0,1 @ F,0,0,1,0,2.475157,0,1 @ F,0,0,1,0,1,0,1 @ F,0,0,1,0,1,0,1 @ F,0,0,1,0,2.475157,0,1 @ F,0,0,1,0,1,0,1 @ F,0,0,1,0,1,0,1 @ F,0,0,1,0,2.475157,0,1 @ F,0,0,1,0,1,0,1"
       radius="0"
       unit="px"
       method="auto"
       mode="F"
       chamfer_steps="1"
       flexible="false"
       use_knot_distance="true"
       apply_no_radius="true"
       apply_with_radius="true"
       only_selected="false"
       hide_knots="false" />
    <inkscape:path-effect
       effect="fillet_chamfer"
       id="path-effect3-6"
       is_visible="true"
       lpeversion="1"
       nodesatellites_param="F,0,0,1,0,0,0,1 @ F,0,1,1,0,0,0,1 @ F,0,1,1,0,0,0,1 @ F,0,1,1,0,0,0,1 @ F,0,1,1,0,0,0,1 @ F,0,1,1,0,0,0,1 @ F,0,1,1,0,0,0,1 @ F,0,1,1,0,0,0,1 @ F,0,1,1,0,0,0,1 @ F,0,1,1,0,0,0,1 @ F,0,1,1,0,0,0,1 @ F,0,1,1,0,0,0,1"
       radius="0"
       unit="px"
       method="auto"
       mode="F"
       chamfer_steps="1"
       flexible="false"
       use_knot_distance="true"
       apply_no_radius="true"
       apply_with_radius="true"
       only_selected="false"
       hide_knots="false" />
  </defs>
  <g
     inkscape:label="Ebene 1"
     inkscape:groupmode="layer"
     id="layer1"
     transform="translate(-11.301128,-24.57717)">
    <circle
       style="fill:#993399;fill-opacity:1;stroke-width:0.352302"
       id="path1"
       cx="65"
       cy="78.276001"
       r="35" />
    <path
       d="m 36.954149,63.106562 h 10.406939 q 3.571873,0 5.335761,1.89618 1.807985,1.896179 1.807985,5.732635 0,3.219096 -0.970138,4.938887 -0.970139,1.675693 -3.042707,2.20486 v 0.176388 q 2.293054,0.573264 3.263193,2.20486 1.014235,1.631597 1.014235,5.071178 0,4.012845 -1.719791,6.085413 -1.71979,2.028472 -5.688538,2.028472 H 36.954149 Z m 8.775342,12.391313 q 1.146528,0 1.719791,-0.264583 0.617361,-0.264584 0.837847,-1.014236 0.264583,-0.749652 0.264583,-2.248957 0,-1.587499 -0.220486,-2.293054 -0.220486,-0.749653 -0.793749,-0.970139 -0.573264,-0.264583 -1.807986,-0.264583 h -2.778123 v 7.055552 z m 0.132292,12.611799 q 1.234722,0 1.807985,-0.264584 0.573264,-0.264583 0.79375,-1.014235 0.220486,-0.749653 0.220486,-2.381249 0,-1.631596 -0.220486,-2.381249 -0.220486,-0.793749 -0.837847,-1.058332 -0.573264,-0.264584 -1.763888,-0.264584 h -2.910415 v 7.364233 z M 74.525004,63.106562 v 16.889227 q 0,5.997219 -0.529166,8.731245 -0.485069,2.689929 -2.381249,3.880554 -1.852082,1.190624 -6.12951,1.190624 -4.277429,0 -6.173608,-1.190624 -1.852083,-1.190625 -2.381249,-3.880554 -0.485069,-2.734026 -0.485069,-8.731245 V 63.106562 h 6.041316 V 82.02426 q 0,3.219096 0.132292,4.453817 0.176389,1.190625 0.749652,1.587499 0.617361,0.396875 2.116666,0.396875 1.499304,0 2.072568,-0.396875 0.573264,-0.396874 0.705555,-1.587499 0.176389,-1.190624 0.176389,-4.453817 V 63.106562 Z m 10.010089,30.69165 q -1.852083,0 -4.056943,-0.220486 -2.160762,-0.176389 -3.836456,-0.529166 v -4.938886 q 4.497914,0.352777 6.217705,0.352777 1.543402,0 2.337152,-0.176389 0.793749,-0.176388 1.190624,-0.61736 0.352778,-0.352778 0.440972,-0.970139 0.132292,-0.661458 0.132292,-1.852082 0,-1.631596 -0.176389,-2.293054 -0.176389,-0.705556 -0.749653,-1.014236 -0.529166,-0.352778 -1.896179,-0.617361 l -4.145137,-0.749652 q -2.20486,-0.396875 -3.042706,-2.425346 -0.837847,-2.028471 -0.837847,-5.864927 0,-3.748262 1.058333,-5.732636 1.102429,-1.984374 2.998609,-2.689929 1.89618,-0.705556 4.806595,-0.705556 2.028471,0 3.880553,0.264584 1.89618,0.264583 3.086804,0.529166 v 4.938886 q -2.381249,-0.396875 -5.335761,-0.396875 -1.587499,0 -2.469443,0.132292 -0.837847,0.132292 -1.234722,0.485069 -0.485069,0.352778 -0.61736,1.014236 -0.132292,0.661458 -0.132292,1.940277 0,1.367013 0.132292,1.984373 0.176388,0.617361 0.573263,0.881944 0.396875,0.264584 1.367013,0.440972 l 3.880554,0.705556 q 1.543402,0.220486 2.601734,0.970138 1.10243,0.705555 1.719791,2.381249 0.617361,1.763888 0.617361,4.982983 0,4.189234 -1.014236,6.305899 -1.014235,2.116666 -2.82222,2.822221 -1.763888,0.661458 -4.674303,0.661458 z"
       id="text1"
       style="font-weight:bold;font-stretch:condensed;font-size:44.0972px;font-family:'Saira Condensed';-inkscape-font-specification:'Saira Condensed,  Bold Condensed';letter-spacing:-1.85208px;fill:#ffffff;stroke-width:0.264583"
       aria-label="BUS" />
    <text
       xml:space="preserve"
       style="font-weight:bold;font-stretch:condensed;font-size:44.0973px;font-family:'Saira Condensed';-inkscape-font-specification:'Saira Condensed,  Bold Condensed';letter-spacing:-1.85208px;fill:#ffffff;stroke-width:0.264583"
       x="3.6960001"
       y="26.379999"
       id="text2"><tspan
         sodipodi:role="line"
         id="tspan2"
         style="stroke-width:0.264583"
         x="3.6960001"
         y="26.379999"></tspan></text>
    <path
       id="rect2"
       style="fill:#ffffff;fill-opacity:1;stroke:#993399;stroke-width:4.80002;stroke-dasharray:none;stroke-opacity:1"
       d="M 6.3841064,-0.5198039 V 16.004852 a 2.475157,2.475157 135 0 1 -2.475157,2.475157 H -12.616223 a 1,1 135 0 0 -1,1 v 7.999906 a 1,1 45 0 0 1,1 l 16.5251724,0 a 2.475157,2.475157 45 0 1 2.475157,2.475157 v 16.525173 a 1,1 45 0 0 1,1 h 7.9999066 a 1,1 135 0 0 1,-1 V 30.955072 a 2.475157,2.475157 135 0 1 2.475157,-2.475157 h 16.524656 a 1,1 135 0 0 1,-1 l 0,-7.999906 a 1,1 45 0 0 -1,-1 H 18.85917 A 2.475157,2.475157 45 0 1 16.384013,16.004852 V -0.5198039 a 1,1 45 0 0 -1,-1 H 7.3841064 a 1,1 135 0 0 -1,1 z"
       inkscape:original-d="M 6.3841064,-1.5198039 V 18.480009 H -13.616223 v 9.999906 H 6.3841064 v 20.00033 H 16.384013 V 28.479915 H 36.383826 V 18.480009 H 16.384013 V -1.5198039 Z"
       inkscape:path-effect="#path-effect3"
       transform="matrix(0.72992607,0,0,0.72992184,22.991794,40.714328)" />
  </g>
</svg>
