<?xml version="1.0" encoding="UTF-8" standalone="no"?>
<!-- Created with Inkscape (http://www.inkscape.org/) -->

<svg
   width="100mm"
   height="100mm"
   viewBox="0 0 100 100"
   version="1.1"
   id="svg1"
   xmlns="http://www.w3.org/2000/svg"
   xmlns:svg="http://www.w3.org/2000/svg">
  <defs
     id="defs1" />
  <g
     id="layer1">
    <path
       style="fill:#008000;stroke-width:0"
       id="rect1"
       width="100"
       height="100"
       x="0"
       y="0"
       d="m 15,0 h 70 a 15,15 45 0 1 15,15 V 85 A 15,15 135 0 1 85,100 H 15 A 15,15 45 0 1 0,85 V 15 A 15,15 135 0 1 15,0 Z" />
    <path
       style="font-style:italic;font-weight:bold;font-size:70.5556px;font-family:'Saira Condensed';-inkscape-font-specification:'Saira Condensed,  Bold Italic';letter-spacing:-1.85208px;fill:#ffffff;stroke-width:0"
       d="M 7.4726074,74.209251 V 66.165913 L 23.065396,34.204224 H 7.9664966 V 25.666997 H 33.930959 V 33.63978 L 18.267615,65.672023 H 34.07207 v 8.537228 z M 54.09217,69.90536 h -0.564445 q -1.693335,4.868336 -7.902228,4.868336 -3.457224,0 -5.221114,-1.340556 -1.693335,-1.340557 -2.328335,-4.02167 -0.564445,-2.751668 -0.564445,-7.549449 V 38.225894 h 9.101673 V 57.69924 q 0,4.515559 0.211667,6.208893 0.211666,1.693335 0.846667,2.187224 0.705556,0.423334 2.469446,0.423334 1.76389,0 2.469446,-0.705556 0.776112,-0.705556 0.987778,-2.610558 0.211667,-1.975557 0.211667,-6.561671 V 38.225894 h 9.101673 v 35.983357 h -8.537228 z m 24.817991,18.626679 q -2.540001,0 -5.362226,-0.211667 -2.822224,-0.211667 -4.586114,-0.564445 v -6.985005 q 1.270001,0 1.834446,0.07056 l 5.997226,0.07056 q 3.316114,0 4.586114,-0.564445 1.340557,-0.564445 1.693335,-2.187224 0.352778,-1.622779 0.352778,-5.785559 v -2.681113 h -0.564445 q -1.622779,4.374447 -7.196671,4.374447 -3.527781,0 -5.503337,-1.622779 -1.905002,-1.693334 -2.681113,-5.503337 -0.776112,-3.880558 -0.776112,-11.006674 0,-7.267227 0.846667,-11.147785 0.846667,-3.951114 2.751669,-5.503337 1.905001,-1.622779 5.432781,-1.622779 2.469446,0 4.445003,1.12889 2.046113,1.058334 2.89278,3.668891 h 0.564445 l 0.282222,-4.233336 h 8.607784 V 69.90536 q 0,7.337782 -0.776112,11.006674 -0.776112,3.739447 -3.668891,5.644448 -2.89278,1.975557 -9.172229,1.975557 z m 0.705556,-22.577793 q 1.552224,0 2.25778,-0.493889 0.776111,-0.49389 1.128889,-1.905002 0.423334,-1.693334 0.423334,-7.620005 0,-5.29167 -0.352778,-7.05556 -0.282223,-1.76389 -1.058334,-2.328335 -0.705556,-0.635 -2.398891,-0.635 -1.905001,0 -2.610557,0.564444 -0.705556,0.49389 -0.987778,2.469447 -0.211667,1.905001 -0.211667,6.985004 0,5.080004 0.211667,7.055561 0.282222,1.905001 0.987778,2.469446 0.705556,0.493889 2.610557,0.493889 z"
       id="text2"
       aria-label="Zug" />
  </g>
</svg>
