<?xml version="1.0" encoding="UTF-8" standalone="no"?>
<!-- Created with Inkscape (http://www.inkscape.org/) -->

<svg
   width="100mm"
   height="100mm"
   viewBox="0 0 100 100"
   version="1.1"
   id="svg1"
   xmlns="http://www.w3.org/2000/svg"
   xmlns:svg="http://www.w3.org/2000/svg">
  <defs
     id="defs1" />
  <g
     id="layer1">
    <rect
       style="fill:#ff0000;stroke-width:0.264583"
       id="rect1"
       width="100"
       height="100"
       x="0"
       y="0" />
    <g
       id="text1"
       style="font-size:59.9722px;fill:#ffffff;stroke-width:0.264583"
       aria-label="Tram">
      <path
         style="font-weight:bold;font-stretch:condensed;font-family:'Saira Condensed';-inkscape-font-specification:'Saira Condensed,  Bold Condensed';letter-spacing:-4.7625px"
         d="M 9.7396038,70.390549 V 36.626201 H 1.9432179 V 29.129676 H 25.812153 v 7.496525 h -7.796386 v 33.764348 z"
         id="path5" />
      <path
         style="font-weight:bold;font-stretch:condensed;font-family:'Saira Condensed';-inkscape-font-specification:'Saira Condensed,  Bold Condensed';letter-spacing:-1.5875px"
         d="m 24.408053,39.804727 h 7.316608 l 0.239889,5.037665 h 0.479777 q 0.899583,-3.118554 2.578805,-4.317998 1.679222,-1.199444 4.497915,-1.199444 v 8.096247 q -2.698749,0 -4.317998,0.779638 -1.559278,0.779639 -2.338916,2.758721 -0.719667,1.979083 -0.719667,5.517443 v 13.91355 h -7.736413 z m 22.221464,31.065599 q -3.718277,0 -5.337526,-2.218971 -1.619249,-2.278944 -1.619249,-7.076719 0,-3.53836 0.719666,-5.517443 0.719666,-2.039054 2.398888,-2.938637 Q 44.53049,52.159 47.589072,52.159 q 2.158999,0 5.757331,0.239889 v -1.37936 q 0,-2.518833 -0.419805,-3.53836 -0.359834,-1.0795 -1.439333,-1.379361 -1.019528,-0.299861 -3.598332,-0.299861 -2.518832,0 -6.716886,0.419806 v -5.99722 q 4.497915,-0.899583 9.055802,-0.899583 4.497915,0 6.83683,1.199444 2.338916,1.199444 3.178527,3.778248 0.839611,2.578805 0.839611,7.376581 v 18.711326 h -7.376581 l -0.239889,-3.598332 h -0.419805 q -0.779639,2.218971 -2.518832,3.178526 -1.739194,0.899583 -3.898193,0.899583 z M 49.98796,64.15344 q 1.019527,0 1.619249,-0.239889 0.659694,-0.239889 1.0795,-0.899583 0.659694,-1.019527 0.659694,-4.138081 v -1.499305 h -3.598332 q -1.559277,0 -2.099027,0.659694 -0.479777,0.659694 -0.479777,2.878665 0,1.919111 0.479777,2.578805 0.53975,0.659694 2.338916,0.659694 z"
         id="path6" />
      <path
         style="font-weight:bold;font-stretch:condensed;font-family:'Saira Condensed';-inkscape-font-specification:'Saira Condensed,  Bold Condensed';letter-spacing:0px"
         d="m 90.320368,53.838222 q 0,-3.778249 -0.179916,-5.217581 -0.179917,-1.499305 -0.719667,-1.859138 -0.479777,-0.419806 -1.859138,-0.419806 -1.439333,0 -2.039055,0.599722 -0.599721,0.599722 -0.779638,2.218971 -0.119944,1.559278 -0.119944,5.577415 V 70.390549 H 76.886596 V 53.838222 q 0,-3.778249 -0.179917,-5.217581 -0.179916,-1.499305 -0.719666,-1.859138 -0.479778,-0.419806 -1.91911,-0.419806 -1.439333,0 -2.039055,0.599722 -0.53975,0.599722 -0.719667,2.278944 -0.179916,1.619249 -0.179916,5.517442 V 70.390549 H 63.392851 V 39.804727 h 7.316608 l 0.239889,3.658305 h 0.419806 q 0.899583,-2.218972 2.518832,-3.178527 1.619249,-0.959555 4.138082,-0.959555 2.698749,0 4.138081,1.019527 1.439333,0.959555 1.979083,3.118555 h 0.479778 q 0.83961,-2.218972 2.518832,-3.178527 1.679221,-0.959555 4.198054,-0.959555 2.758721,0 4.198054,1.139472 1.439332,1.079499 1.979082,3.358443 0.53975,2.218971 0.53975,6.117164 v 20.45052 h -7.736414 z"
         id="path7" />
    </g>
  </g>
</svg>
